<?xml version="1.0" encoding="utf-8"?>
<!-- Generator: Adobe Illustrator 16.0.0, SVG Export Plug-In . SVG Version: 6.00 Build 0)  -->
<!DOCTYPE svg PUBLIC "-//W3C//DTD SVG 1.1//EN" "http://www.w3.org/Graphics/SVG/1.1/DTD/svg11.dtd">
<svg version="1.1" id="Layer_1" xmlns="http://www.w3.org/2000/svg" xmlns:xlink="http://www.w3.org/1999/xlink" x="0px" y="0px"
	 width="112.76px" height="37.997px" viewBox="0 0 112.76 37.997" enable-background="new 0 0 112.76 37.997" xml:space="preserve">
<g>
	<path fill="#8C979A" d="M51.438,23.692h-0.57v3.368c0,0.801,0,1.68-1.213,1.68c-1.134,0-1.134-0.959-1.134-1.862v-3.272
		l-1.663,0.182v0.175c0.769,0.104,0.793,0.111,0.793,0.776v2.536c0,1.181,0.506,1.84,1.901,1.84c1.791,0,1.886-1.079,1.886-2.14
		V23.692z"/>
	<path fill="#8C979A" d="M53.845,29.026h0.501v-4.51h0.017l2.615,4.51h0.761v-5.334h-0.501v4.313h-0.016l-2.496-4.313h-1.672v0.174
		c0.682,0.136,0.791,0.104,0.791,0.842V29.026z"/>
	<path fill="#8C979A" d="M60.207,29.026h0.872v-5.422l-1.665,0.184v0.174c0.77,0.103,0.793,0.111,0.793,0.776V29.026z"/>
	<path fill="#8C979A" d="M64.945,29.026h0.689l1.936-5.334h-0.518l-1.512,4.343h-0.018l-1.554-4.343h-1.537v0.174
		c0.634,0.119,0.705,0.119,0.958,0.842L64.945,29.026z"/>
	<path fill="#8C979A" d="M69.467,29.026h3.163l0.023-1.148h-0.222c-0.048,0.618-0.262,0.775-0.714,0.775h-0.879
		c-0.397,0-0.501-0.015-0.501-0.459v-1.768h0.96c0.476,0,0.65,0.254,0.65,0.682h0.222v-1.665h-0.222
		c-0.049,0.263-0.104,0.61-0.65,0.61h-0.96v-1.577c0-0.38,0.104-0.412,0.501-0.412h0.618c0.522,0,0.855,0.167,0.855,0.801h0.222
		l-0.023-1.173h-3.797v0.174c0.729,0.119,0.753,0.119,0.753,0.903V29.026z"/>
	<path fill="#8C979A" d="M75.636,24.777c0-0.569,0-0.713,0.531-0.713c0.666,0,1.156,0.237,1.156,1.094
		c0,0.889-0.722,1.03-1.235,1.03h-0.452V24.777z M74.764,29.026h0.872v-2.465h0.492l1.403,2.465h0.911l-1.458-2.607
		c0.626-0.103,1.212-0.404,1.212-1.309c0-1.418-1.641-1.418-2.235-1.418h-1.95v0.174c0.737,0.119,0.753,0.119,0.753,0.903V29.026z"
		/>
	<path fill="#8C979A" d="M83.098,23.747c-0.205-0.039-0.721-0.143-1.269-0.143c-1.117,0-1.783,0.499-1.783,1.371
		c0,1.673,2.576,1.554,2.576,2.838c0,0.721-0.491,0.927-0.991,0.927c-0.633,0-1.269-0.333-1.513-0.475v0.642
		c0.165,0.039,0.776,0.206,1.387,0.206c1.094,0,1.989-0.428,1.989-1.562c0-1.695-2.575-1.585-2.575-2.806
		c0-0.523,0.34-0.769,0.761-0.769c0.618,0,1.204,0.254,1.418,0.356V23.747z"/>
	<path fill="#8C979A" d="M85.496,29.026h0.872v-5.422l-1.664,0.184v0.174c0.768,0.103,0.792,0.111,0.792,0.776V29.026z"/>
	<path fill="#8C979A" d="M89.735,29.026h0.871v-4.962h0.539c0.611,0,0.864,0.19,0.864,0.801h0.223l-0.033-1.173h-4.058l-0.032,1.149
		h0.223c0.047-0.579,0.23-0.777,0.856-0.777h0.547V29.026z"/>
	<path fill="#8C979A" d="M95.129,29.026h0.873v-2.488l1.696-2.846H97.19l-1.388,2.338l-1.348-2.338H92.98v0.174
		c0.396,0.064,0.596,0.064,0.872,0.531l1.276,2.141V29.026z"/>
	<path fill="#8C979A" d="M42.866,14.363c-0.207-0.04-0.721-0.143-1.268-0.143c-1.117,0-1.783,0.5-1.783,1.371
		c0,1.671,2.575,1.554,2.575,2.837c0,0.723-0.491,0.928-0.989,0.928c-0.636,0-1.269-0.333-1.516-0.477v0.643
		c0.166,0.04,0.777,0.207,1.387,0.207c1.094,0,1.99-0.429,1.99-1.563c0-1.696-2.576-1.584-2.576-2.806
		c0-0.523,0.34-0.768,0.76-0.768c0.621,0,1.207,0.254,1.42,0.356V14.363z"/>
	<path fill="#8C979A" d="M46.12,19.642h0.871V14.68h0.541c0.609,0,0.863,0.189,0.863,0.8h0.223l-0.031-1.172h-4.059l-0.033,1.148
		h0.223c0.048-0.578,0.229-0.776,0.855-0.776h0.547V19.642z"/>
	<path fill="#8C979A" d="M50.366,19.642h3.163l0.022-1.149h-0.221c-0.049,0.619-0.264,0.776-0.715,0.776h-0.879
		c-0.396,0-0.5-0.016-0.5-0.459v-1.768h0.959c0.477,0,0.65,0.254,0.65,0.682h0.221v-1.665h-0.221
		c-0.047,0.262-0.104,0.612-0.65,0.612h-0.959v-1.579c0-0.381,0.104-0.412,0.5-0.412h0.619c0.521,0,0.855,0.166,0.855,0.8h0.222
		l-0.022-1.172h-3.799v0.173c0.729,0.119,0.754,0.119,0.754,0.904V19.642z"/>
	<path fill="#8C979A" d="M55.702,19.642h3.218l0.024-1.149h-0.223c0,0.745-0.435,0.776-0.935,0.776h-0.683
		c-0.53,0-0.53,0-0.53-0.594V14.22l-1.665,0.182v0.175c0.77,0.103,0.793,0.111,0.793,0.777V19.642z"/>
	<path fill="#8C979A" d="M60.991,19.642h3.218l0.024-1.149h-0.223c0,0.745-0.435,0.776-0.935,0.776h-0.682
		c-0.531,0-0.531,0-0.531-0.594V14.22L60.2,14.402v0.175c0.768,0.103,0.791,0.111,0.791,0.777V19.642z"/>
	<path fill="#8C979A" d="M66.432,19.642h3.162l0.023-1.149h-0.221c-0.049,0.619-0.263,0.776-0.715,0.776h-0.88
		c-0.396,0-0.498-0.016-0.498-0.459v-1.768h0.958c0.476,0,0.649,0.254,0.649,0.682h0.223v-1.665h-0.223
		c-0.046,0.262-0.102,0.612-0.649,0.612h-0.958v-1.579c0-0.381,0.103-0.412,0.498-0.412h0.619c0.523,0,0.856,0.166,0.856,0.8h0.221
		l-0.022-1.172h-3.798v0.173c0.73,0.119,0.754,0.119,0.754,0.904V19.642z"/>
	<path fill="#8C979A" d="M71.753,19.642h0.498v-4.509h0.016l2.616,4.509h0.762v-5.333h-0.5v4.31H75.13l-2.498-4.31H70.96v0.173
		c0.681,0.135,0.793,0.104,0.793,0.841V19.642z"/>
	<path fill="#8C979A" d="M78.954,17.011h0.721c0.697,0,1.285,0.277,1.285,1.062c0,0.809-0.374,1.196-1.244,1.196
		c-0.438,0-0.762,0-0.762-0.324V17.011z M78.954,15.092c0-0.389,0.135-0.412,0.61-0.412c0.722,0,1.125,0.238,1.125,0.951
		c0,0.784-0.522,1.007-1.204,1.007h-0.531V15.092z M78.082,19.642h1.489c0.652,0,2.259,0,2.259-1.418c0-1.007-0.657-1.3-1.22-1.412
		v-0.015c0.389-0.126,0.951-0.429,0.951-1.206c0-1.07-0.966-1.283-1.878-1.283h-2.355v0.173c0.738,0.119,0.754,0.119,0.754,0.904
		V19.642z"/>
	<path fill="#8C979A" d="M84.49,16.995c0-1.071,0.096-2.402,1.324-2.402c1.203,0,1.275,1.363,1.275,2.402
		c0,1.014-0.047,2.36-1.275,2.36C84.608,19.355,84.49,17.978,84.49,16.995 M85.814,19.729c1.647,0,2.147-1.054,2.147-2.733
		c0-1.706-0.5-2.774-2.147-2.774c-1.72,0-2.196,1.069-2.196,2.774C83.618,18.69,84.142,19.729,85.814,19.729"/>
	<path fill="#8C979A" d="M92.763,14.363c-0.207-0.04-0.721-0.143-1.269-0.143c-1.117,0-1.782,0.5-1.782,1.371
		c0,1.671,2.574,1.554,2.574,2.837c0,0.723-0.491,0.928-0.989,0.928c-0.636,0-1.269-0.333-1.516-0.477v0.643
		c0.168,0.04,0.777,0.207,1.388,0.207c1.094,0,1.989-0.429,1.989-1.563c0-1.696-2.576-1.584-2.576-2.806
		c0-0.523,0.343-0.768,0.761-0.768c0.62,0,1.206,0.254,1.42,0.356V14.363z"/>
	<path fill="#8C979A" d="M98.648,18.929c-0.206,0.15-0.689,0.428-1.379,0.428c-1.531,0-1.625-1.752-1.625-2.639
		c0-0.817,0.174-2.124,1.26-2.124c0.722,0,0.889,0.538,0.928,0.8h0.949c-0.086-0.634-0.568-1.173-1.805-1.173
		c-1.768,0-2.204,1.228-2.204,2.694c0,1.775,0.626,2.813,2.25,2.813c0.786,0,1.428-0.214,1.626-0.293V18.929z"/>
	<path fill="#8C979A" d="M100.688,19.642h0.872v-2.591h2.156v2.591h0.871v-5.333h-0.871v2.369h-2.156V14.22l-1.664,0.182v0.175
		c0.745,0.078,0.792,0.151,0.792,0.777V19.642z"/>
	<path fill="#8C979A" d="M47.304,4.923h-0.569v3.37c0,0.8,0,1.679-1.212,1.679c-1.135,0-1.135-0.959-1.135-1.863V4.835l-1.664,0.182
		v0.175c0.77,0.103,0.793,0.111,0.793,0.776v2.537c0,1.181,0.506,1.839,1.901,1.839c1.792,0,1.886-1.078,1.886-2.14V4.923z"/>
	<path fill="#8C979A" d="M49.711,10.257h0.5V5.748h0.017l2.614,4.509h0.761V4.923h-0.498v4.312h-0.017l-2.497-4.312h-1.672v0.175
		c0.682,0.134,0.792,0.102,0.792,0.84V10.257z"/>
	<path fill="#8C979A" d="M56.072,10.257h0.872V4.836L55.28,5.018v0.175c0.768,0.102,0.792,0.111,0.792,0.776V10.257z"/>
	<path fill="#8C979A" d="M60.811,10.257h0.69l1.933-5.334h-0.515l-1.514,4.344h-0.017l-1.553-4.344h-1.537v0.175
		c0.633,0.118,0.705,0.118,0.958,0.84L60.811,10.257z"/>
	<path fill="#8C979A" d="M65.333,10.257h3.162l0.023-1.149h-0.221c-0.05,0.619-0.263,0.777-0.715,0.777h-0.879
		c-0.396,0-0.5-0.016-0.5-0.46V7.658h0.96c0.476,0,0.649,0.253,0.649,0.681h0.222V6.675h-0.222c-0.048,0.261-0.103,0.61-0.649,0.61
		h-0.96V5.708c0-0.38,0.104-0.413,0.5-0.413h0.618c0.523,0,0.856,0.167,0.856,0.801H68.4l-0.024-1.173h-3.797v0.175
		c0.729,0.118,0.754,0.118,0.754,0.903V10.257z"/>
	<path fill="#8C979A" d="M71.501,6.01c0-0.572,0-0.715,0.531-0.715c0.665,0,1.157,0.239,1.157,1.095
		c0,0.888-0.721,1.029-1.236,1.029h-0.452V6.01z M70.629,10.257h0.872V7.793h0.492l1.402,2.464h0.912L72.85,7.65
		c0.625-0.104,1.212-0.405,1.212-1.308c0-1.419-1.642-1.419-2.234-1.419h-1.95v0.175c0.737,0.118,0.752,0.118,0.752,0.903V10.257z"
		/>
	<path fill="#8C979A" d="M78.964,4.979c-0.207-0.04-0.721-0.143-1.269-0.143c-1.117,0-1.783,0.499-1.783,1.372
		c0,1.672,2.574,1.553,2.574,2.837c0,0.721-0.489,0.927-0.989,0.927c-0.635,0-1.269-0.333-1.514-0.476v0.642
		c0.166,0.04,0.777,0.207,1.387,0.207c1.094,0,1.989-0.429,1.989-1.562c0-1.696-2.575-1.585-2.575-2.805
		c0-0.523,0.341-0.77,0.761-0.77c0.619,0,1.205,0.254,1.419,0.357V4.979z"/>
	<path fill="#8C979A" d="M81.362,10.257h0.872V4.836l-1.665,0.182v0.175c0.769,0.102,0.793,0.111,0.793,0.776V10.257z"/>
	<path fill="#8C979A" d="M85.601,10.257h0.873V5.295h0.536c0.612,0,0.866,0.19,0.866,0.801h0.222l-0.031-1.173h-4.06l-0.03,1.15
		h0.221c0.048-0.579,0.23-0.778,0.857-0.778h0.546V10.257z"/>
	<path fill="#8C979A" d="M89.845,10.257h3.163l0.023-1.149H92.81c-0.047,0.619-0.261,0.777-0.712,0.777h-0.881
		c-0.397,0-0.499-0.016-0.499-0.46V7.658h0.958c0.476,0,0.65,0.253,0.65,0.681h0.223V6.675h-0.223
		c-0.048,0.261-0.104,0.61-0.65,0.61h-0.958V5.708c0-0.38,0.102-0.413,0.499-0.413h0.618c0.522,0,0.855,0.167,0.855,0.801h0.222
		l-0.023-1.173h-3.795v0.175c0.728,0.118,0.751,0.118,0.751,0.903V10.257z"/>
	<path fill="#8C979A" d="M95.214,10.257h0.871V4.836l-1.664,0.182v0.175c0.768,0.102,0.793,0.111,0.793,0.776V10.257z"/>
	<path fill="#8C979A" d="M99.453,10.257h0.872V5.295h0.538c0.61,0,0.863,0.19,0.863,0.801h0.224l-0.033-1.173h-4.059l-0.029,1.15
		h0.22c0.048-0.579,0.231-0.778,0.857-0.778h0.547V10.257z"/>
	<path fill="#60223B" d="M29.585,17.635c0.59,0.656,1.023,1.378,1.3,2.165c0.288,0.774,0.432,1.68,0.434,2.716
		c0,2.467-1.124,4.711-2.38,6.355c0,0,2.516-7.064-5.257-9.78c-0.854-0.34-1.831-0.714-2.933-1.121
		c-1.103-0.419-2.055-0.813-2.854-1.181c-1.575-0.708-2.802-1.634-3.681-2.775c-0.866-1.154-1.299-2.657-1.299-4.507
		c0-1.063,0.217-2.054,0.649-2.973c0.433-0.918,1.049-1.737,1.849-2.459c0.762-0.683,1.662-1.214,2.698-1.595
		c1.036-0.394,2.119-0.59,3.247-0.59c1.285,0,2.434,0.196,3.444,0.59c1.024,0.394,1.954,0.853,2.795,1.378l1.005-1.744h1.359v9.676
		h-1.42c-0.289-1.063-0.617-2.079-0.984-3.051c-0.354-0.971-0.82-1.849-1.396-2.637c-0.564-0.761-1.254-1.364-2.066-1.811
		c-0.813-0.459-1.813-0.689-2.992-0.689c-1.247,0-2.311,0.4-3.188,1.201c-0.879,0.801-1.319,1.778-1.319,2.932
		c0,1.208,0.282,2.212,0.847,3.011c0.564,0.788,1.383,1.438,2.46,1.949c0.957,0.459,1.896,0.861,2.813,1.201
		c0.932,0.328,1.83,0.682,2.697,1.063c0.787,0.341,1.541,0.728,2.264,1.162C28.411,16.553,29.048,17.059,29.585,17.635"/>
	<path fill="#8C979A" d="M25.483,32.767c0.861-0.428,2.028-1.541,2.219-1.734v5.074H1.562V2.116h9.353
		C10.062,2.933,9.399,3.85,8.92,4.866C8.397,5.978,8.134,7.177,8.134,8.462c0,2.241,0.523,4.059,1.573,5.458
		c1.063,1.382,2.548,2.501,4.454,3.36c0.969,0.445,2.121,0.921,3.457,1.43c1.332,0.492,2.518,0.945,3.55,1.358
		c1.509,0.604,2.644,1.493,3.407,2.668c0.763,1.161,1.144,2.415,1.144,3.766c-0.001,0.922-0.127,1.739-0.381,2.454
		c-0.239,0.699-0.599,1.325-1.121,1.836c-2.511,2.446-6.401,2.422-7.837,1.864c-1.607-0.625-6.197-2.321-8.919-11.423
		c3.118,8.194,8.147,12.017,12.595,10.723c-1.833-0.044-2.766-0.036-3.113-0.924c-0.3-0.769,0.33-1.236-0.352-1.384
		c-0.634-0.137-1.456,0.629-1.402-0.336c0.034-0.607,1.954-2.088,0.582-3.161c-0.998-0.779-1.48,0.866-2.246,0.21
		c-0.523-0.448,1.659-5.477-0.304-5.58c-1.108-0.058-1.215,1.869-1.804,1.446c-0.301-0.215,0.656-3.074-0.959-3.498
		c-1.108-0.291-1.053,1.667-1.49,1.446c-0.438-0.222,0.171-1.87-0.758-2.108c-1.168-0.3-0.916,1.417-1.604,1.462
		c-0.688,0.044-1.279-1.301-2.22,0.279c-0.584,0.984,1.054,2.298,0.74,2.711s-2.25-0.148-2.12,1.385
		c0.109,1.272,2.143,0.995,2.173,1.42c0.033,0.426-1.616,0.991-1.433,1.48c0.689,1.849,4.477,0.192,5.182,1.806
		c0.424,0.97-1.599,2.026-0.152,2.813c0.795,0.431,1.649-1.086,2.988-0.546c1.233,0.495-0.502,1.301,0.301,1.696
		c0.914,0.449,2.575,0.004,3.144,0.396C16.919,34.144,22.413,34.287,25.483,32.767"/>
</g>
</svg>
